<?xml version="1.0" encoding="utf-8"?>
<!-- Generator: Adobe Illustrator 25.0.0, SVG Export Plug-In . SVG Version: 6.00 Build 0)  -->
<svg version="1.1" id="图层_1" xmlns="http://www.w3.org/2000/svg" xmlns:xlink="http://www.w3.org/1999/xlink" x="0px" y="0px"
	 viewBox="0 0 24 24" style="enable-background:new 0 0 24 24;" xml:space="preserve">
<style type="text/css">
	.st0{filter:url(#Adobe_OpacityMaskFilter);}
	.st1{fill-rule:evenodd;clip-rule:evenodd;fill:#FFFFFF;}
	.st2{mask:url(#mask-3_1_);fill-rule:evenodd;clip-rule:evenodd;fill:#FFFFFF;}
	.st3{filter:url(#Adobe_OpacityMaskFilter_1_);}
	.st4{mask:url(#mask-5_1_);fill-rule:evenodd;clip-rule:evenodd;fill:#FFFFFF;}
</style>
<g id="编组" transform="translate(10.000000, 8.000000)">
	<g transform="translate(6.000000, 22.199700)">
		<defs>
			<filter id="Adobe_OpacityMaskFilter" filterUnits="userSpaceOnUse" x="-7.6" y="-8" width="7.2" height="1.8">
				<feColorMatrix  type="matrix" values="1 0 0 0 0  0 1 0 0 0  0 0 1 0 0  0 0 0 1 0"/>
			</filter>
		</defs>
		<mask maskUnits="userSpaceOnUse" x="-7.6" y="-8" width="7.2" height="1.8" id="mask-3_1_">
			<g class="st0">
				<polygon id="path-2_1_" class="st1" points="-7.6,-8 -0.4,-8 -0.4,-6.2 -7.6,-6.2 				"/>
			</g>
		</mask>
		<path id="Fill-1" class="st2" d="M-1.3-8h-5.4c-0.5,0-0.9,0.4-0.9,0.9s0.4,0.9,0.9,0.9h5.4c0.5,0,0.9-0.4,0.9-0.9S-0.8-8-1.3-8"/>
	</g>
	<g>
		<defs>
			<filter id="Adobe_OpacityMaskFilter_1_" filterUnits="userSpaceOnUse" x="-7.6" y="-8" width="19.2" height="20.4">
				<feColorMatrix  type="matrix" values="1 0 0 0 0  0 1 0 0 0  0 0 1 0 0  0 0 0 1 0"/>
			</filter>
		</defs>
		<mask maskUnits="userSpaceOnUse" x="-7.6" y="-8" width="19.2" height="20.4" id="mask-5_1_">
			<g class="st3">
				<polygon id="path-4_1_" class="st1" points="-7.6,-8 11.6,-8 11.6,12.4 -7.6,12.4 				"/>
			</g>
		</mask>
		<path id="Fill-3" class="st4" d="M5,2.8L2.9,4.9V10c0,0.5-0.4,0.9-0.9,0.9c-0.5,0-0.9-0.4-0.9-0.9V4.9L-1,2.8
			c-0.4-0.4-0.4-0.9,0-1.3c0.4-0.4,0.9-0.4,1.3,0L2,3.2l1.7-1.7C4,1.2,4.6,1.2,5,1.6S5.3,2.5,5,2.8 M2-8c-5.3,0-9.6,4.3-9.6,9.6
			c0,3,1.4,5.7,3.6,7.5v2.1c0,0.7,0.5,1.2,1.2,1.2h9.6c0.7,0,1.2-0.5,1.2-1.2V9.1c2.2-1.8,3.6-4.5,3.6-7.5C11.6-3.7,7.3-8,2-8"/>
	</g>
</g>
</svg>
