<?xml version="1.0" encoding="UTF-8"?>
<svg width="16px" height="16px" viewBox="0 0 16 16" version="1.1" xmlns="http://www.w3.org/2000/svg" xmlns:xlink="http://www.w3.org/1999/xlink">
    <title>icon_collect_normal</title>
    <g id="页面-1" stroke="none" stroke-width="1" fill="none" fill-rule="evenodd">
        <g id="4-公司详情-1" transform="translate(-298.000000, -106.000000)" fill="#FFFFFF" stroke="#9EA5BB">
            <g id="编组-7" transform="translate(285.000000, 100.000000)">
                <path d="M23.3402102,10.0400129 C23.5494023,10.4828133 23.9562448,10.7905221 24.4265664,10.86107 L26.7637469,11.2153104 C27.9467642,11.3939316 28.4199711,12.9069583 27.5630049,13.776048 L25.8707131,15.4917122 C25.5316777,15.8354455 25.3758656,16.3322826 25.456657,16.8186126 L25.8562861,19.2427576 C26.0582646,20.4690897 24.8204246,21.4042243 23.7629225,20.8248311 L21.6710016,19.681055 C21.2511748,19.4498981 20.7491138,19.4498981 20.3292869,19.681055 L18.237366,20.8248311 C17.179864,21.4042243 15.9420239,20.4690897 16.1440025,19.2427576 L16.5436315,16.8186126 C16.6244229,16.3322826 16.4686109,15.8354455 16.1295754,15.4917122 L14.4372836,13.776048 C13.5803174,12.9069583 14.0535243,11.3939316 15.2365416,11.2153104 L17.5751649,10.86107 C18.0440437,10.7905221 18.4508862,10.4828133 18.6600783,10.0400129 L19.7074815,7.83651764 C20.2355111,6.71975984 21.7647774,6.71975984 22.2942498,7.83651764 L23.3402102,10.0400129 Z" id="icon_collect_normal"></path>
            </g>
        </g>
    </g>
</svg>