<?xml version="1.0" encoding="UTF-8"?>
<svg width="14px" height="14px" viewBox="0 0 14 14" version="1.1" xmlns="http://www.w3.org/2000/svg" xmlns:xlink="http://www.w3.org/1999/xlink">
    <title>icon_title</title>
    <defs>
        <linearGradient x1="100%" y1="50%" x2="0%" y2="50%" id="linearGradient-1">
            <stop stop-color="#2C68FF" stop-opacity="0" offset="0%"></stop>
            <stop stop-color="#2C68FF" offset="100%"></stop>
        </linearGradient>
    </defs>
    <g id="页面-1" stroke="none" stroke-width="1" fill="none" fill-rule="evenodd">
        <g id="4-公司详情-1备份-2" transform="translate(-230.000000, -388.000000)" fill="url(#linearGradient-1)">
            <path d="M243,400 C242.448,400 242,400.448 242,401 C242,401.552 242.448,402 243,402 C243.552,402 244,401.552 244,401 C244,400.448 243.552,400 243,400 M243,396 C242.448,396 242,396.448 242,397 C242,397.552 242.448,398 243,398 C243.552,398 244,397.552 244,397 C244,396.448 243.552,396 243,396 M243,392 C242.448,392 242,392.448 242,393 C242,393.552 242.448,394 243,394 C243.552,394 244,393.552 244,393 C244,392.448 243.552,392 243,392 M243,388 C242.448,388 242,388.448 242,389 C242,389.552 242.448,390 243,390 C243.552,390 244,389.552 244,389 C244,388.448 243.552,388 243,388 M239,400 C238.448,400 238,400.448 238,401 C238,401.552 238.448,402 239,402 C239.552,402 240,401.552 240,401 C240,400.448 239.552,400 239,400 M239,396 C238.448,396 238,396.448 238,397 C238,397.552 238.448,398 239,398 C239.552,398 240,397.552 240,397 C240,396.448 239.552,396 239,396 M239,392 C238.448,392 238,392.448 238,393 C238,393.552 238.448,394 239,394 C239.552,394 240,393.552 240,393 C240,392.448 239.552,392 239,392 M239,388 C238.448,388 238,388.448 238,389 C238,389.552 238.448,390 239,390 C239.552,390 240,389.552 240,389 C240,388.448 239.552,388 239,388 M235,400 C234.448,400 234,400.448 234,401 C234,401.552 234.448,402 235,402 C235.552,402 236,401.552 236,401 C236,400.448 235.552,400 235,400 M235,396 C234.448,396 234,396.448 234,397 C234,397.552 234.448,398 235,398 C235.552,398 236,397.552 236,397 C236,396.448 235.552,396 235,396 M235,392 C234.448,392 234,392.448 234,393 C234,393.552 234.448,394 235,394 C235.552,394 236,393.552 236,393 C236,392.448 235.552,392 235,392 M235,388 C234.448,388 234,388.448 234,389 C234,389.552 234.448,390 235,390 C235.552,390 236,389.552 236,389 C236,388.448 235.552,388 235,388 M231,400 C230.448,400 230,400.448 230,401 C230,401.552 230.448,402 231,402 C231.552,402 232,401.552 232,401 C232,400.448 231.552,400 231,400 M231,396 C230.448,396 230,396.448 230,397 C230,397.552 230.448,398 231,398 C231.552,398 232,397.552 232,397 C232,396.448 231.552,396 231,396 M231,392 C230.448,392 230,392.448 230,393 C230,393.552 230.448,394 231,394 C231.552,394 232,393.552 232,393 C232,392.448 231.552,392 231,392 M232,389 C232,389.552 231.552,390 231,390 C230.448,390 230,389.552 230,389 C230,388.448 230.448,388 231,388 C231.552,388 232,388.448 232,389" id="icon_title"></path>
        </g>
    </g>
</svg>