<?xml version="1.0" encoding="UTF-8"?>
<svg width="14px" height="14px" viewBox="0 0 14 14" version="1.1" xmlns="http://www.w3.org/2000/svg" xmlns:xlink="http://www.w3.org/1999/xlink">
    <title>icon_edit</title>
    <g id="移动端" stroke="none" stroke-width="1" fill="none" fill-rule="evenodd">
        <g id="4-公司详情-4纠错" transform="translate(-84.000000, -1168.000000)" fill="#2C68FF" fill-rule="nonzero">
            <path d="M95.2291463,1181.99997 L86.7611061,1181.99997 C85.2364968,1181.9974 84.0014984,1180.76153 84,1179.23692 L84,1170.76305 C84.0014984,1169.23844 85.2364968,1168.00257 86.7611061,1168 L90.9949318,1168 C91.3001299,1168 91.5475419,1168.24741 91.5475419,1168.55261 C91.5475419,1168.85781 91.3001299,1169.10522 90.9949318,1169.10522 L86.7611061,1169.10522 C85.8466774,1169.10757 85.1061522,1169.84862 85.1044424,1170.76305 L85.1044424,1179.23692 C85.1061522,1180.15135 85.8466774,1180.8924 86.7611061,1180.89475 L95.2291463,1180.89475 C96.143575,1180.8924 96.8841002,1180.15135 96.88581,1179.23692 L96.88581,1174.99999 C96.88581,1174.695 97.1330478,1174.44777 97.4380312,1174.44777 C97.7430145,1174.44777 97.9902524,1174.695 97.9902524,1174.99999 L97.9902524,1179.23692 C97.988754,1180.76153 96.7537556,1181.9974 95.2291463,1181.99997 Z M95.692701,1169.25611 L96.2118667,1169.77955 L96.7349213,1170.29911 L94.1943148,1172.84088 L91.1570981,1175.87693 L90.0122113,1175.98349 L90.1187667,1174.83782 L93.1524834,1171.79827 L95.692701,1169.2565 L95.692701,1169.25611 Z M95.692701,1168 C95.4967014,1168 95.3084795,1168.07778 95.1700353,1168.21739 L92.3719848,1171.01738 L89.154324,1174.26304 C89.0936942,1174.32331 89.05589,1174.40276 89.0473797,1174.48782 L88.841269,1176.78304 C88.8319692,1176.88634 88.8666108,1176.98877 88.9366972,1177.06523 C89.0067836,1177.14168 89.1058312,1177.18507 89.2095461,1177.18476 L89.2426016,1177.18476 L91.5362641,1176.97865 C91.6213403,1176.9702 91.7008184,1176.93239 91.7610415,1176.87171 L94.9860912,1173.64393 L97.7841417,1170.84394 C97.9223531,1170.70573 98,1170.51828 98,1170.32283 C98,1170.12737 97.9223531,1169.93992 97.7841417,1169.80172 L96.9923653,1168.99828 L96.2118667,1168.21778 C96.0745014,1168.07927 95.8877752,1168.00094 95.692701,1168 L95.692701,1168 Z" id="icon_edit"></path>
        </g>
    </g>
</svg>