<?xml version="1.0" encoding="UTF-8"?>
<svg width="16px" height="16px" viewBox="0 0 16 16" version="1.1" xmlns="http://www.w3.org/2000/svg" xmlns:xlink="http://www.w3.org/1999/xlink">
    <title>icon_web</title>
    <g id="页面-1" stroke="none" stroke-width="1" fill="none" fill-rule="evenodd">
        <g id="4-公司详情-2已收藏" transform="translate(-84.000000, -352.000000)" fill="#0FCE8C" fill-rule="nonzero">
            <g id="icon_web" transform="translate(84.000000, 352.000000)">
                <rect id="矩形" opacity="0" x="0" y="0" width="16" height="16"></rect>
                <path d="M8,1.00116666 C4.13454166,1.00116666 1.00058334,4.13395834 1.00058334,8.00058334 C1.00058334,11.8669167 4.13454166,14.9997083 8,14.9997083 C11.8663333,14.9997083 14.999125,11.8669167 14.999125,8.00058334 C14.999125,4.13395834 11.8663333,1.00116666 8,1.00116666 Z M5.20379166,2.62020834 C5.5098219,2.46011594 5.82900237,2.32653047 6.15783334,2.22091666 C5.813375,2.72579166 5.51645834,3.36804166 5.28429166,4.110625 C4.93691666,3.88866666 4.733625,3.62266666 4.733625,3.33420834 C4.733625,3.072 4.91183334,2.83020834 5.20379166,2.62020834 L5.20379166,2.62020834 Z M3.84608334,3.58708334 C3.95429168,4.135125 4.383625,4.626875 5.05270834,4.994375 C4.88004168,5.77283334 4.77270834,6.62858334 4.74470834,7.53391666 L1.95725,7.53391666 C2.07188449,6.02859022 2.7456808,4.62065143 3.84608334,3.58708334 Z M3.84608334,12.4137917 C2.7456808,11.3802236 2.07188449,9.97228478 1.95725,8.46695834 L4.74383334,8.46695834 C4.77183334,9.37229168 4.88004168,10.2280417 5.05270834,11.0065 C4.383625,11.37225 3.95429168,11.8660417 3.84608334,12.4137917 L3.84608334,12.4137917 Z M5.20379166,13.3806667 C4.91183332,13.1706667 4.733625,12.928 4.733625,12.6666667 C4.733625,12.3782083 4.93691666,12.1113333 5.28429166,11.889375 C5.51645832,12.633125 5.813375,13.2742083 6.15783334,13.7799583 C5.82892957,13.6745419 5.50973243,13.5409494 5.20379166,13.3806667 L5.20379166,13.3806667 Z M7.53333334,13.9441667 C6.94708334,13.6352917 6.44220834,12.7506667 6.10533334,11.5300417 C6.57017124,11.3932958 7.04944711,11.3115566 7.53333334,11.2865 L7.53333334,13.9441667 L7.53333334,13.9441667 Z M7.53333334,10.3595833 C6.98022048,10.3899363 6.43308025,10.4893896 5.90466666,10.655625 C5.77168091,9.93312071 5.69522703,9.20134787 5.676,8.46695834 L7.53333334,8.46695834 L7.53333334,10.3595833 L7.53333334,10.3595833 Z M7.53333334,7.53391666 L5.676,7.53391666 C5.69525,6.7995 5.77166666,6.06770832 5.90466666,5.34554166 C6.43316666,5.51120832 6.98033332,5.61066666 7.53333334,5.64216666 L7.53333334,7.53391666 L7.53333334,7.53391666 Z M7.53333334,4.714375 C7.04954518,4.68843682 6.57037093,4.60671491 6.10533334,4.47083334 C6.44220834,3.25020834 6.94708334,2.36645834 7.53333334,2.05670834 L7.53333334,4.714375 L7.53333334,4.714375 Z M12.153625,3.58708334 C13.2542626,4.62038294 13.9278486,6.02853443 14.0415833,7.53391666 L11.255,7.53391666 C11.227,6.62858332 11.1187917,5.77283332 10.946125,4.994375 C11.6160833,4.62775 12.0454167,4.135125 12.153625,3.58708334 L12.153625,3.58708334 Z M10.7959167,2.62020834 C11.087875,2.83020834 11.266375,3.072 11.266375,3.33420834 C11.266375,3.62266668 11.0627917,3.88866668 10.7157083,4.110625 C10.48325,3.36804166 10.1863333,2.72579166 9.84129166,2.22091666 C10.1702917,2.32620832 10.4896667,2.45979166 10.7959167,2.62020834 L10.7959167,2.62020834 Z M8.46666666,2.05670834 C9.0535,2.36645834 9.558375,3.25020834 9.894375,4.47083334 C9.42943707,4.60671567 8.95035928,4.68843782 8.46666666,4.714375 L8.46666666,2.05670834 Z M8.46666666,5.64216666 C9.019585,5.61117403 9.56653808,5.51183489 10.0950417,5.34641666 C10.2210417,6.0155 10.30125,6.75283332 10.3237083,7.53391666 L8.46666666,7.53391666 L8.46666666,5.64216666 L8.46666666,5.64216666 Z M8.46666666,8.46695834 L10.3237083,8.46695834 C10.3045741,9.20164366 10.2281196,9.93371449 10.0950417,10.6565 C9.56676846,10.4901007 9.01970389,10.3906433 8.46666666,10.3604583 L8.46666666,8.46695834 L8.46666666,8.46695834 Z M8.46666666,13.9441667 L8.46666666,11.2865 C8.95045475,11.3115792 9.42963142,11.3933182 9.894375,11.5300417 C9.558375,12.7506667 9.0535,13.6352917 8.46666666,13.9441667 Z M10.7959167,13.3806667 C10.4899753,13.5409714 10.1708985,13.674847 9.84216666,13.7808333 C10.1863333,13.2750833 10.484125,12.634 10.7165833,11.89025 C11.0636667,12.1122083 11.26725,12.3790833 11.26725,12.6675417 C11.266375,12.928 11.087875,13.1706667 10.7959167,13.3806667 Z M12.153625,12.4137917 C12.0454167,11.8660417 11.6152083,11.373125 10.946125,11.0065 C11.1283301,10.1715175 11.2317422,9.32127299 11.255,8.46695834 L14.0415833,8.46695834 C13.9278486,9.97234057 13.2542626,11.3804921 12.153625,12.4137917 Z" id="形状"></path>
            </g>
        </g>
    </g>
</svg>