<?xml version="1.0" encoding="UTF-8"?>
<svg width="14px" height="14px" viewBox="0 0 14 14" version="1.1" xmlns="http://www.w3.org/2000/svg" xmlns:xlink="http://www.w3.org/1999/xlink">
    <title>icon_collect_selected</title>
    <g id="页面-1" stroke="none" stroke-width="1" fill="none" fill-rule="evenodd">
        <g id="4-公司详情-3公司介绍展开" transform="translate(-293.000000, -107.000000)" fill="#FF9C00">
            <g id="编组-7" transform="translate(285.000000, 100.000000)">
                <path d="M16.2942498,7.83651764 L17.3402102,10.0400129 C17.5494023,10.4828133 17.9562448,10.7905221 18.4265664,10.86107 L20.7637469,11.2153104 C21.9467642,11.3939316 22.4199711,12.9069583 21.5630049,13.776048 L19.8707131,15.4917122 C19.5316777,15.8354455 19.3758656,16.3322826 19.456657,16.8186126 L19.8562861,19.2427576 C20.0582646,20.4690897 18.8204246,21.4042243 17.7629225,20.8248311 L15.6710016,19.681055 C15.2511748,19.4498981 14.7491138,19.4498981 14.3292869,19.681055 L12.237366,20.8248311 C11.179864,21.4042243 9.94202391,20.4690897 10.1440025,19.2427576 L10.5436315,16.8186126 C10.6244229,16.3322826 10.4686109,15.8354455 10.1295754,15.4917122 L8.43728359,13.776048 C7.58031739,12.9069583 8.05352432,11.3939316 9.23654163,11.2153104 L11.5751649,10.86107 C12.0440437,10.7905221 12.4508862,10.4828133 12.6600783,10.0400129 L13.7074815,7.83651764 C14.2355111,6.71975984 15.7647774,6.71975984 16.2942498,7.83651764" id="icon_collect_selected"></path>
            </g>
        </g>
    </g>
</svg>