<?xml version="1.0" encoding="UTF-8"?>
<svg width="16px" height="16px" viewBox="0 0 16 16" version="1.1" xmlns="http://www.w3.org/2000/svg" xmlns:xlink="http://www.w3.org/1999/xlink">
    <title>icon_find</title>
    <g id="页面-1" stroke="none" stroke-width="1" fill="none" fill-rule="evenodd">
        <g id="4-公司详情-2已收藏" transform="translate(-233.000000, -352.000000)" fill="#2C68FF" fill-rule="nonzero">
            <g id="icon_find" transform="translate(233.000000, 352.000000)">
                <rect id="矩形" opacity="0" x="0" y="0" width="16" height="16"></rect>
                <path d="M14,1 L2,1 C1.4485,1 1,1.4485 1,2 L1,14 C1,14.5515 1.4485,15 2,15 L11.25,15 C11.5261424,15 11.75,14.7761424 11.75,14.5 C11.75,14.2238576 11.5261424,14 11.25,14 L2,14 L2,2 L14,2 L14,11.25 C14,11.5261424 14.2238576,11.75 14.5,11.75 C14.7761424,11.75 15,11.5261424 15,11.25 L15,2 C15,1.4485 14.5515,1 14,1 Z M12.371,11.664 C12.7793373,11.1093633 12.9997253,10.4387388 13,9.75 C13,7.958 11.542,6.5 9.75,6.5 C7.958,6.5 6.5,7.958 6.5,9.75 C6.5,11.542 7.958,13 9.75,13 C10.4387388,12.9997253 11.1093633,12.7793373 11.664,12.371 L13.3965,14.1035 C13.4900676,14.1976046 13.6172952,14.2505174 13.75,14.2505174 C13.8827048,14.2505174 14.0099324,14.1976046 14.1035,14.1035 C14.1973582,14.0098013 14.2501006,13.8826228 14.2501006,13.75 C14.2501006,13.6173772 14.1973582,13.4901987 14.1035,13.3965 L12.371,11.664 Z M7.5,9.75 C7.5,8.5095 8.5095,7.5 9.75,7.5 C10.9905,7.5 12,8.5095 12,9.75 C12,10.9905 10.9905,12 9.75,12 C8.5095,12 7.5,10.9905 7.5,9.75 Z M12.5,4.125 C12.5,3.84885763 12.2761424,3.625 12,3.625 L4,3.625 C3.72385763,3.625 3.5,3.84885763 3.5,4.125 C3.5,4.40114237 3.72385763,4.625 4,4.625 L12,4.625 C12.2761424,4.625 12.5,4.40114237 12.5,4.125 Z M4,6.604 C3.72385763,6.604 3.5,6.82785763 3.5,7.104 C3.5,7.38014237 3.72385763,7.604 4,7.604 L5.5,7.604 C5.77614237,7.604 6,7.38014237 6,7.104 C6,6.82785763 5.77614237,6.604 5.5,6.604 L4,6.604 Z" id="形状"></path>
            </g>
        </g>
    </g>
</svg>