<?xml version="1.0" encoding="UTF-8"?>
<svg width="22px" height="22px" viewBox="0 0 22 22" version="1.1" xmlns="http://www.w3.org/2000/svg" xmlns:xlink="http://www.w3.org/1999/xlink">
    <title>icon_home_selected</title>
    <defs>
        <linearGradient x1="50%" y1="0%" x2="50%" y2="100%" id="linearGradient-1">
            <stop stop-color="#0FCE8C" stop-opacity="0" offset="0%"></stop>
            <stop stop-color="#0FCE8C" stop-opacity="0.306225757" offset="100%"></stop>
        </linearGradient>
        <linearGradient x1="50%" y1="0%" x2="50%" y2="100%" id="linearGradient-2">
            <stop stop-color="#57A1FF" offset="0%"></stop>
            <stop stop-color="#2C68FF" offset="100%"></stop>
        </linearGradient>
    </defs>
    <g id="控件" stroke="none" stroke-width="1" fill="none" fill-rule="evenodd">
        <g id="画板" transform="translate(-40.000000, -67.000000)">
            <g id="icon_home_selected" transform="translate(40.000000, 67.000000)">
                <path d="M10.9996,22.0006111 C9.8956,22.0006111 8.9996,21.1046111 8.9996,20.0006111 L8.9996,7.00061111 C8.9996,5.89661111 9.8956,5.00061111 10.9996,5.00061111 L19.9996,5.00061111 C21.1036,5.00061111 21.9996,5.89661111 21.9996,7.00061111 L21.9996,20.0006111 C21.9996,21.1046111 21.1036,22.0006111 19.9996,22.0006111 L10.9996,22.0006111 Z" id="Fill-1" fill="url(#linearGradient-1)"></path>
                <path d="M19.24,6.42861111 L11.0688889,0.354166667 C10.4333333,-0.118055556 9.56555556,-0.118055556 8.93,0.354166667 L0.758888889,6.42861111 C0.282222222,6.78305556 0,7.34305556 0,7.93861111 L0,18.1419444 C0,19.1686111 0.813333333,20.0008333 1.81777778,20.0008333 L5.45444444,20.0008333 C6.45777778,20.0008333 7.27222222,19.1863889 7.27222222,18.1819444 L7.27222222,13.7908333 C7.27222222,12.3141667 8.37888889,10.9897222 9.85333333,10.9130556 C11.4255556,10.8308333 12.7266667,12.0819444 12.7266667,13.6363889 L12.7266667,18.1819444 C12.7266667,19.1863889 13.5411111,20.0008333 14.5444444,20.0008333 L18.1811111,20.0008333 C19.1855556,20.0008333 20,19.1686111 20,18.1419444 L20,7.93861111 C20,7.34305556 19.7177778,6.78305556 19.24,6.42861111" id="Fill-3" fill="url(#linearGradient-2)"></path>
            </g>
        </g>
    </g>
</svg>