<?xml version="1.0" encoding="UTF-8"?>
<svg width="22px" height="22px" viewBox="0 0 22 22" version="1.1" xmlns="http://www.w3.org/2000/svg" xmlns:xlink="http://www.w3.org/1999/xlink">
    <title>icon_home_normal</title>
    <defs>
        <polygon id="path-1" points="0 0 20 0 20 20.0002222 0 20.0002222"></polygon>
    </defs>
    <g id="控件" stroke="none" stroke-width="1" fill="none" fill-rule="evenodd">
        <g id="画板" transform="translate(-39.000000, -28.000000)">
            <g id="icon_home_normal" transform="translate(39.000000, 28.000000)">
                <path d="M19.9996,22 L10.9996,22 C9.8956,22 8.9996,21.104 8.9996,20 L8.9996,7 C8.9996,5.896 9.8956,5 10.9996,5 L19.9996,5 C21.1036,5 21.9996,5.896 21.9996,7 L21.9996,20 C21.9996,21.104 21.1036,22 19.9996,22" id="Fill-1" fill="#E8EBF3"></path>
                <g id="编组">
                    <mask id="mask-2" fill="white">
                        <use xlink:href="#path-1"></use>
                    </mask>
                    <g id="Clip-4"></g>
                    <path d="M19.24,6.428 L11.0688889,0.353555556 C10.4333333,-0.118666667 9.56555556,-0.118666667 8.93,0.353555556 L0.758888889,6.428 C0.282222222,6.78244444 0,7.34244444 0,7.938 L0,18.1413333 C0,19.168 0.813333333,20.0002222 1.81777778,20.0002222 L5.45444444,20.0002222 C6.45777778,20.0002222 7.27222222,19.1857778 7.27222222,18.1813333 L7.27222222,13.7902222 C7.27222222,12.3135556 8.37888889,10.9891111 9.85333333,10.9124444 C11.4255556,10.8302222 12.7266667,12.0813333 12.7266667,13.6357778 L12.7266667,18.1813333 C12.7266667,19.1857778 13.5411111,20.0002222 14.5444444,20.0002222 L18.1811111,20.0002222 C19.1855556,20.0002222 20,19.168 20,18.1413333 L20,7.938 C20,7.34244444 19.7177778,6.78244444 19.24,6.428" id="Fill-3" fill="#9EA5BB" mask="url(#mask-2)"></path>
                </g>
            </g>
        </g>
    </g>
</svg>