<?xml version="1.0" encoding="UTF-8"?>
<svg width="22px" height="22px" viewBox="0 0 22 22" version="1.1" xmlns="http://www.w3.org/2000/svg" xmlns:xlink="http://www.w3.org/1999/xlink">
    <title>icon_category_normal</title>
    <defs>
        <linearGradient x1="50%" y1="0%" x2="50%" y2="100%" id="linearGradient-1">
            <stop stop-color="#E8EBF3" stop-opacity="0" offset="0%"></stop>
            <stop stop-color="#E8EBF3" offset="100%"></stop>
        </linearGradient>
    </defs>
    <g id="控件" stroke="none" stroke-width="1" fill="none" fill-rule="evenodd">
        <g id="画板" transform="translate(-151.000000, -28.000000)">
            <g id="icon_category_normal" transform="translate(151.000000, 28.000000)">
                <path d="M20,22 L11,22 C9.896,22 9,21.104 9,20 L9,7 C9,5.896 9.896,5 11,5 L20,5 C21.104,5 22,5.896 22,7 L22,20 C22,21.104 21.104,22 20,22" id="Fill-1" fill="url(#linearGradient-1)"></path>
                <path d="M20,17.7777778 L20,13.1311111 C20,11.9044444 19.0044444,10.9088889 17.7777778,10.9088889 L13.1311111,10.9088889 C11.9044444,10.9088889 10.9088889,11.9044444 10.9088889,13.1311111 L10.9088889,17.7777778 C10.9088889,19.0044444 11.9044444,20 13.1311111,20 L17.7777778,20 C19.0044444,20 20,19.0044444 20,17.7777778 M9.09111111,17.7777778 L9.09111111,13.1311111 C9.09111111,11.9044444 8.09555556,10.9088889 6.86888889,10.9088889 L2.22222222,10.9088889 C0.995555556,10.9088889 0,11.9044444 0,13.1311111 L0,17.7777778 C0,19.0044444 0.995555556,20 2.22222222,20 L6.86888889,20 C8.09555556,20 9.09111111,19.0044444 9.09111111,17.7777778 M20,4.54555556 L20,4.54555556 C20,2.03555556 17.9644444,0 15.4544444,0 C12.9433333,0 10.9088889,2.03555556 10.9088889,4.54555556 C10.9088889,7.05666667 12.9433333,9.09111111 15.4544444,9.09111111 C17.9644444,9.09111111 20,7.05666667 20,4.54555556 M6.86888889,9.09111111 L2.22222222,9.09111111 C0.995555556,9.09111111 0,8.09555556 0,6.86888889 L0,2.22222222 C0,0.995555556 0.995555556,0 2.22222222,0 L6.86888889,0 C8.09555556,0 9.09111111,0.995555556 9.09111111,2.22222222 L9.09111111,6.86888889 C9.09111111,8.09555556 8.09555556,9.09111111 6.86888889,9.09111111" id="Fill-3" fill="#9EA5BB"></path>
            </g>
        </g>
    </g>
</svg>