<?xml version="1.0" encoding="UTF-8"?>
<svg width="14px" height="14px" viewBox="0 0 14 14" version="1.1" xmlns="http://www.w3.org/2000/svg" xmlns:xlink="http://www.w3.org/1999/xlink">
    <title>btn_ok</title>
    <g id="页面-1" stroke="none" stroke-width="1" fill="none" fill-rule="evenodd">
        <g id="2-注册-4错误提示" transform="translate(-308.000000, -375.000000)" fill="#0FCE8C">
            <path d="M318.521,379.744 L314.854,384.841 C314.771,384.956 314.643,385.031 314.501,385.046 C314.483,385.048 314.466,385.049 314.448,385.049 C314.325,385.049 314.205,385.003 314.112,384.919 L311.549,382.596 C311.345,382.411 311.329,382.094 311.515,381.89 C311.7,381.684 312.017,381.67 312.221,381.855 L314.369,383.802 L317.709,379.16 C317.871,378.936 318.183,378.885 318.407,379.046 C318.631,379.207 318.683,379.52 318.521,379.744 M315,375 C311.141,375 308,378.14 308,382 C308,385.86 311.141,389 315,389 C318.86,389 322,385.86 322,382 C322,378.14 318.86,375 315,375" id="btn_ok"></path>
        </g>
    </g>
</svg>