<?xml version="1.0" encoding="UTF-8"?>
<svg width="30px" height="30px" viewBox="0 0 30 30" version="1.1" xmlns="http://www.w3.org/2000/svg" xmlns:xlink="http://www.w3.org/1999/xlink">
    <title>btn_add</title>
    <g id="移动端" stroke="none" stroke-width="1" fill="none" fill-rule="evenodd">
        <g id="6-新增企业-1" transform="translate(-61.000000, -883.000000)" fill="#2C68FF">
            <path d="M76.6753106,898.675311 L90.3246894,898.675311 C90.6988115,898.675311 91,898.372771 91,898 C91,897.627229 90.6988115,897.324689 90.3246894,897.324689 L76.6753106,897.324689 L76.6753106,883.675311 C76.6753106,883.301189 76.3727715,883 76,883 C75.6272285,883 75.3246894,883.301189 75.3246894,883.675311 L75.3246894,897.324689 L61.6753106,897.324689 C61.3011885,897.324689 61,897.627229 61,898 C61,898.186386 61.0742842,898.355213 61.1971907,898.47812 C61.3187466,898.599676 61.4875743,898.675311 61.6753106,898.675311 L75.3246894,898.675311 L75.3246894,912.324689 C75.3246894,912.512426 75.4003241,912.681253 75.5218801,912.802809 C75.6447866,912.925716 75.8136143,913 76,913 C76.3727715,913 76.6753106,912.698811 76.6753106,912.324689 L76.6753106,898.675311 Z" id="btn_add"></path>
        </g>
    </g>
</svg>