<?xml version="1.0" encoding="UTF-8"?>
<svg width="14px" height="14px" viewBox="0 0 14 14" version="1.1" xmlns="http://www.w3.org/2000/svg" xmlns:xlink="http://www.w3.org/1999/xlink">
    <title>btn_add_2</title>
    <g id="移动端" stroke="none" stroke-width="1" fill="none" fill-rule="evenodd">
        <g id="6-新增企业-9" transform="translate(-118.000000, -512.000000)" fill="#2C68FF">
            <g id="编组-3" transform="translate(118.000000, 509.000000)">
                <path d="M13.5,9.5 L7.5,9.5 L7.5,3.5 C7.5,3.224 7.276,3 7,3 C6.724,3 6.5,3.224 6.5,3.5 L6.5,9.5 L0.5,9.5 C0.224,9.5 0,9.724 0,10 C0,10.276 0.224,10.5 0.5,10.5 L6.5,10.5 L6.5,16.5 C6.5,16.776 6.724,17 7,17 C7.276,17 7.5,16.776 7.5,16.5 L7.5,10.5 L13.5,10.5 C13.776,10.5 14,10.276 14,10 C14,9.724 13.776,9.5 13.5,9.5" id="btn_add_2"></path>
            </g>
        </g>
    </g>
</svg>