<?xml version="1.0" encoding="UTF-8"?>
<svg width="20px" height="20px" viewBox="0 0 20 20" version="1.1" xmlns="http://www.w3.org/2000/svg" xmlns:xlink="http://www.w3.org/1999/xlink">
    <title>icon_policy</title>
    <defs>
        <linearGradient x1="50%" y1="0%" x2="50%" y2="100%" id="linearGradient-1">
            <stop stop-color="#58A1FF" offset="0%"></stop>
            <stop stop-color="#2C68FF" offset="100%"></stop>
        </linearGradient>
    </defs>
    <g id="移动端" stroke="none" stroke-width="1" fill="none" fill-rule="evenodd">
        <g id="7-个人中心-1" transform="translate(-36.000000, -483.000000)">
            <g id="icon_policy" transform="translate(36.000000, 483.000000)">
                <path d="M20,10 C20,15.522 15.522,20 10,20 C4.478,20 0,15.522 0,10 C0,4.478 4.478,0 10,0 C15.522,0 20,4.478 20,10" id="Fill-1" fill="url(#linearGradient-1)"></path>
                <path d="M8.167,5.0693 L5.417,5.0693 C4.91,5.0693 4.5,5.4793 4.5,5.9863 L4.5,8.7363 C4.5,9.2423 4.91,9.6533 5.417,9.6533 L8.167,9.6533 C8.673,9.6533 9.083,9.2423 9.083,8.7363 L9.083,5.9863 C9.083,5.4793 8.673,5.0693 8.167,5.0693" id="Fill-3" fill="#FFFFFF"></path>
                <path d="M8.167,10.917 L5.417,10.917 C4.91,10.917 4.5,11.327 4.5,11.833 L4.5,14.583 C4.5,15.09 4.91,15.5 5.417,15.5 L8.167,15.5 C8.673,15.5 9.083,15.09 9.083,14.583 L9.083,11.833 C9.083,11.327 8.673,10.917 8.167,10.917" id="Fill-5" fill="#FFFFFF"></path>
                <path d="M15.2314,6.7129 L13.2874,4.7689 C12.9284,4.4099 12.3484,4.4099 11.9904,4.7689 L10.0454,6.7129 C9.6884,7.0709 9.6884,7.6509 10.0454,8.0099 L11.9904,9.9539 C12.3484,10.3119 12.9284,10.3119 13.2874,9.9539 L15.2314,8.0099 C15.5894,7.6509 15.5894,7.0709 15.2314,6.7129" id="Fill-7" fill="#FFFFFF"></path>
                <path d="M14.0137,10.917 L11.2637,10.917 C10.7577,10.917 10.3467,11.327 10.3467,11.833 L10.3467,14.583 C10.3467,15.09 10.7577,15.5 11.2637,15.5 L14.0137,15.5 C14.5207,15.5 14.9307,15.09 14.9307,14.583 L14.9307,11.833 C14.9307,11.327 14.5207,10.917 14.0137,10.917" id="Fill-9" fill="#FFFFFF"></path>
            </g>
        </g>
    </g>
</svg>