<?xml version="1.0" encoding="UTF-8"?>
<svg width="16px" height="16px" viewBox="0 0 16 16" version="1.1" xmlns="http://www.w3.org/2000/svg" xmlns:xlink="http://www.w3.org/1999/xlink">
    <title>icon_more</title>
    <g id="移动端" stroke="none" stroke-width="1" fill="none" fill-rule="evenodd">
        <g id="7-个人中心-1" transform="translate(-328.000000, -298.000000)">
            <g id="icon_more" transform="translate(328.000000, 298.000000)">
                <rect id="矩形" stroke="#979797" fill="#D8D8D8" opacity="0" x="0.5" y="0.5" width="15" height="15"></rect>
                <path d="M5.49995055,12.9995517 C5.36295055,12.9995517 5.22695055,12.9435517 5.12795055,12.8335517 C4.94395055,12.6285517 4.95995055,12.3125517 5.16595055,12.1275517 L9.75195055,7.9995517 L5.16595055,3.8715517 C4.95995055,3.6865517 4.94395055,3.3705517 5.12795055,3.1655517 C5.31295055,2.9595517 5.62895055,2.9445517 5.83395055,3.1275517 L10.8339505,7.6275517 C10.9399505,7.7225517 10.9999505,7.8575517 10.9999505,7.9995517 C10.9999505,8.1415517 10.9399505,8.2765517 10.8339505,8.3715517 L5.83395055,12.8715517 C5.73895055,12.9575517 5.61895055,12.9995517 5.49995055,12.9995517" id="Fill-1备份" fill="#9EA5BB"></path>
            </g>
        </g>
    </g>
</svg>