<?xml version="1.0" encoding="UTF-8"?>
<svg width="20px" height="20px" viewBox="0 0 20 20" version="1.1" xmlns="http://www.w3.org/2000/svg" xmlns:xlink="http://www.w3.org/1999/xlink">
    <title>icon_message</title>
    <defs>
        <linearGradient x1="50%" y1="0%" x2="50%" y2="100%" id="linearGradient-1">
            <stop stop-color="#58A1FF" offset="0%"></stop>
            <stop stop-color="#2C68FF" offset="100%"></stop>
        </linearGradient>
    </defs>
    <g id="移动端" stroke="none" stroke-width="1" fill="none" fill-rule="evenodd">
        <g id="7-个人中心-1" transform="translate(-36.000000, -373.000000)">
            <g id="icon_message" transform="translate(36.000000, 373.000000)">
                <path d="M20,10 C20,15.522 15.522,20 10,20 C4.478,20 0,15.522 0,10 C0,4.478 4.478,0 10,0 C15.522,0 20,4.478 20,10" id="Fill-1" fill="url(#linearGradient-1)"></path>
                <path d="M10.0137,16 C10.8447,16 11.5167,15.327 11.5167,14.501 L8.5087,14.501 C8.5087,15.327 9.1817,16 10.0137,16 M14.5237,12.698 C14.6357,12.693 14.7467,12.723 14.8427,12.784 C14.4547,12.536 14.2207,12.109 14.2227,11.648 L14.2227,8.981 C14.2227,7.026 12.8057,5.396 10.9137,4.995 L10.9137,4.899 C10.9137,4.402 10.5107,4 10.0137,4 L10.0127,4 C9.5157,4 9.1107,4.403 9.1107,4.9 L9.1107,4.994 C7.2167,5.396 5.8027,7.025 5.8027,8.981 L5.8027,11.649 C5.8027,12.128 5.5527,12.546 5.1807,12.785 C5.2747,12.724 5.3867,12.693 5.4997,12.7 C5.1687,12.687 4.8897,12.946 4.8777,13.277 C4.8667,13.608 5.1237,13.887 5.4547,13.8990028 L14.5207,13.8990028 C14.8517,13.9 15.1207,13.631 15.1227028,13.3 C15.1237,12.968 14.8557,12.698 14.5237,12.698" id="Fill-3" fill="#FFFFFF"></path>
            </g>
        </g>
    </g>
</svg>