<?xml version="1.0" encoding="UTF-8"?>
<svg width="20px" height="20px" viewBox="0 0 20 20" version="1.1" xmlns="http://www.w3.org/2000/svg" xmlns:xlink="http://www.w3.org/1999/xlink">
    <title>icon_add</title>
    <defs>
        <linearGradient x1="50%" y1="0%" x2="50%" y2="100%" id="linearGradient-1">
            <stop stop-color="#58A1FF" offset="0%"></stop>
            <stop stop-color="#2C68FF" offset="100%"></stop>
        </linearGradient>
    </defs>
    <g id="移动端" stroke="none" stroke-width="1" fill="none" fill-rule="evenodd">
        <g id="7-个人中心-1" transform="translate(-36.000000, -538.000000)">
            <g id="icon_add" transform="translate(36.000000, 538.000000)">
                <path d="M20,10 C20,15.522 15.522,20 10,20 C4.478,20 0,15.522 0,10 C0,4.478 4.478,0 10,0 C15.522,0 20,4.478 20,10" id="Fill-1" fill="url(#linearGradient-1)"></path>
                <path d="M13.1357,10.6123 L10.6127,10.6123 L10.6127,13.1353 C10.6127,13.4733 10.3377,13.7483 9.9997,13.7483 C9.6617,13.7483 9.3877,13.4733 9.3877,13.1353 L9.3877,10.6123 L6.8647,10.6123 C6.5267,10.6123 6.2517,10.3383 6.2517,10.0003 C6.2517,9.6623 6.5267,9.3873 6.8647,9.3873 L9.3877,9.3873 L9.3877,6.8643 C9.3877,6.5263 9.6617,6.2523 9.9997,6.2523 C10.3377,6.2523 10.6127,6.5263 10.6127,6.8643 L10.6127,9.3873 L13.1357,9.3873 C13.4737,9.3873 13.7477,9.6623 13.7477,10.0003 C13.7477,10.3383 13.4737,10.6123 13.1357,10.6123 M13.4997,4.5003 L6.4997,4.5003 C5.3957,4.5003 4.4997,5.3953 4.4997,6.5003 L4.4997,13.5003 C4.4997,14.6043 5.3957,15.5003 6.4997,15.5003 L13.4997,15.5003 C14.6047,15.5003 15.4997,14.6043 15.4997,13.5003 L15.4997,6.5003 C15.4997,5.3953 14.6047,4.5003 13.4997,4.5003" id="Fill-3" fill="#FFFFFF"></path>
            </g>
        </g>
    </g>
</svg>