<?xml version="1.0" encoding="UTF-8"?>
<svg width="12px" height="12px" viewBox="0 0 12 12" version="1.1" xmlns="http://www.w3.org/2000/svg" xmlns:xlink="http://www.w3.org/1999/xlink">
    <title>icon_hint</title>
    <g id="移动端" stroke="none" stroke-width="1" fill="none" fill-rule="evenodd">
        <g id="8-消息中心-4" transform="translate(-28.000000, -99.000000)" fill="#FF9C00" fill-rule="nonzero">
            <g id="编组-10" transform="translate(16.000000, 93.000000)">
                <g id="icon_hint" transform="translate(12.000000, 6.000000)">
                    <rect id="矩形" opacity="0" x="0" y="0" width="12" height="12"></rect>
                    <path d="M6,0.84375 C6.69609375,0.84375 7.37109375,0.9796875 8.00625,1.24804688 C8.6203125,1.50820312 9.17109375,1.8796875 9.64570313,2.353125 C10.1191406,2.8265625 10.4917969,3.37851563 10.7507812,3.99257813 C11.0203125,4.62890625 11.15625,5.30390625 11.15625,6 C11.15625,6.69609375 11.0203125,7.37109375 10.7519531,8.00625 C10.4917969,8.6203125 10.1203125,9.17109375 9.646875,9.64570313 C9.1734375,10.1191406 8.62148438,10.4917969 8.00742188,10.7507812 C7.37109375,11.0203125 6.69609375,11.15625 6,11.15625 C5.30390625,11.15625 4.62890625,11.0203125 3.99375,10.7519531 C3.3796875,10.4917969 2.82890625,10.1203125 2.35429688,9.646875 C1.88085938,9.1734375 1.50820312,8.62148438 1.24921875,8.00742188 C0.9796875,7.37109375 0.84375,6.69609375 0.84375,6 C0.84375,5.30390625 0.9796875,4.62890625 1.24804688,3.99375 C1.50820312,3.3796875 1.8796875,2.82890625 2.353125,2.35429688 C2.8265625,1.88085938 3.37851563,1.50820312 3.99257813,1.24921875 C4.62890625,0.9796875 5.30390625,0.84375 6,0.84375 Z M6,0 C2.6859375,0 0,2.6859375 0,6 C0,9.3140625 2.6859375,12 6,12 C9.3140625,12 12,9.3140625 12,6 C12,2.6859375 9.3140625,0 6,0 Z M6,7.5 C5.74101562,7.5 5.53125,7.29023438 5.53125,7.03125 L5.53125,2.70703125 C5.53125,2.44804688 5.74101562,2.23828125 6,2.23828125 C6.25898438,2.23828125 6.46875,2.44804688 6.46875,2.70703125 L6.46875,7.03125 C6.46875,7.29023438 6.25898438,7.5 6,7.5 Z M5.47265625,8.77734375 C5.47265625,9.06858984 5.70875391,9.3046875 6,9.3046875 C6.29124609,9.3046875 6.52734375,9.06858984 6.52734375,8.77734375 C6.52734375,8.48609766 6.29124609,8.25 6,8.25 C5.70875391,8.25 5.47265625,8.48609766 5.47265625,8.77734375 Z" id="形状"></path>
                </g>
            </g>
        </g>
    </g>
</svg>