<?xml version="1.0" encoding="UTF-8"?>
<svg width="20px" height="20px" viewBox="0 0 20 20" version="1.1" xmlns="http://www.w3.org/2000/svg" xmlns:xlink="http://www.w3.org/1999/xlink">
    <title>icon_consult</title>
    <defs>
        <linearGradient x1="50%" y1="0%" x2="50%" y2="100%" id="linearGradient-1">
            <stop stop-color="#58A1FF" offset="0%"></stop>
            <stop stop-color="#2C68FF" offset="100%"></stop>
        </linearGradient>
    </defs>
    <g id="移动端" stroke="none" stroke-width="1" fill="none" fill-rule="evenodd">
        <g id="7-个人中心-1" transform="translate(-36.000000, -593.000000)">
            <g id="icon_consult" transform="translate(36.000000, 593.000000)">
                <path d="M20,10 C20,15.522 15.522,20 10,20 C4.478,20 0,15.522 0,10 C0,4.478 4.478,0 10,0 C15.522,0 20,4.478 20,10" id="Fill-1" fill="url(#linearGradient-1)"></path>
                <path d="M12.5771,10.2695 C12.2221,10.2695 11.9321,9.9815 11.9321,9.6245 C11.9321,9.2685 12.2211,8.9805 12.5771,8.9805 C12.9311,8.9805 13.2211,9.2685 13.2211,9.6245 C13.2201,9.9795 12.9311,10.2695 12.5771,10.2695 M9.9981,10.2695 C9.6421,10.2695 9.3531,9.9815 9.3531,9.6245 C9.3531,9.2685 9.6411,8.9805 9.9981,8.9805 C10.3521,8.9805 10.6421,9.2685 10.6421,9.6245 C10.6421,9.9815 10.3521,10.2695 9.9981,10.2695 M7.4211,10.2695 C7.0651,10.2695 6.7761,9.9815 6.7761,9.6245 C6.7761,9.2685 7.0641,8.9805 7.4211,8.9805 C7.7771,8.9805 8.0651,9.2685 8.0651,9.6245 C8.0651,9.9815 7.7771,10.2695 7.4211,10.2695 M15.5221,7.4195 C15.2191,6.7515 14.7841,6.1505 14.2291,5.6345 C13.6791,5.1215 13.0371,4.7175 12.3251,4.4365 C11.5881,4.1475 10.8061,3.9995 9.9991,3.9995 C9.1931,3.9995 8.4101,4.1475 7.6741,4.4365 C6.9601,4.7175 6.3191,5.1215 5.7681,5.6345 C5.2161,6.1505 4.7811,6.7495 4.4761,7.4195 C4.1611,8.1165 4.0011,8.8545 4.0011,9.6175 C4.0011,10.9875 4.5281,12.2955 5.4911,13.3235 L5.7631,15.6275 C5.7781,15.7685 5.8641,15.8915 5.9911,15.9545 C6.0501,15.9845 6.1141,15.9995 6.1811,15.9995 C6.2531,15.9995 6.3261,15.9815 6.3901,15.9455 L8.1281,14.9575 C8.7301,15.1425 9.3591,15.2365 10.0011,15.2365 C10.8061,15.2365 11.5901,15.0885 12.3261,14.7995 C13.0401,14.5185 13.6811,14.1155 14.2311,13.6025 C14.7841,13.0855 15.2191,12.4865 15.5231,11.8165 C15.8401,11.1205 15.9991,10.3815 15.9991,9.6195 C15.9981,8.8565 15.8371,8.1165 15.5221,7.4195" id="Fill-3" fill="#FFFFFF"></path>
            </g>
        </g>
    </g>
</svg>