<?xml version="1.0" encoding="UTF-8"?>
<svg width="14px" height="14px" viewBox="0 0 14 14" version="1.1" xmlns="http://www.w3.org/2000/svg" xmlns:xlink="http://www.w3.org/1999/xlink">
    <title>btn_close</title>
    <g id="页面-1" stroke="none" stroke-width="1" fill="none" fill-rule="evenodd">
        <g id="1-登录-2已输入" transform="translate(-308.000000, -341.000000)" fill="#9EA5BB">
            <path d="M315,341 C318.86,341 322,344.14 322,348 C322,351.86 318.86,355 315,355 C311.14,355 308,351.86 308,348 C308,344.14 311.14,341 315,341 Z M315,342 C311.691,342 309,344.691 309,348 C309,351.309 311.691,354 315,354 C318.309,354 321,351.309 321,348 C321,344.691 318.309,342 315,342 Z M312.1465,345.1465 C312.3415,344.9515 312.6585,344.9515 312.8535,345.1465 L312.8535,345.1465 L314.9995,347.2925 L317.1465,345.1465 C317.3415,344.9515 317.6585,344.9515 317.8535,345.1465 C318.0485,345.3415 318.0485,345.6585 317.8535,345.8535 L317.8535,345.8535 L315.7075,348.0005 L317.8535,350.1465 C318.0485,350.3415 318.0485,350.6585 317.8535,350.8535 C317.7555,350.9515 317.6275,351.0005 317.4995,351.0005 C317.3725,351.0005 317.2445,350.9515 317.1465,350.8535 L317.1465,350.8535 L314.9995,348.7075 L312.8535,350.8535 C312.7555,350.9515 312.6275,351.0005 312.4995,351.0005 C312.3725,351.0005 312.2445,350.9515 312.1465,350.8535 C311.9515,350.6585 311.9515,350.3415 312.1465,350.1465 L312.1465,350.1465 L314.2925,348.0005 L312.1465,345.8535 C311.9515,345.6585 311.9515,345.3415 312.1465,345.1465 Z" id="btn_close"></path>
        </g>
    </g>
</svg>