<?xml version="1.0" encoding="UTF-8"?>
<svg width="14px" height="14px" viewBox="0 0 14 14" version="1.1" xmlns="http://www.w3.org/2000/svg" xmlns:xlink="http://www.w3.org/1999/xlink">
    <title>btn_check_selected</title>
    <g id="页面-1" stroke="none" stroke-width="1" fill="none" fill-rule="evenodd">
        <g id="1-登录-2已输入" transform="translate(-38.000000, -539.000000)" fill="#2C68FF">
            <path d="M48.5206,543.7439 L44.8536,548.8409 C44.7706,548.9559 44.6426,549.0309 44.5006,549.0459 C44.4826,549.0479 44.4656,549.0489 44.4476,549.0489 C44.3246,549.0489 44.2046,549.0029 44.1116,548.9189 L41.5486,546.5959 C41.3446,546.4109 41.3286,546.0939 41.5146,545.8899 C41.6996,545.6839 42.0166,545.6699 42.2206,545.8549 L44.3686,547.8019 L47.7086,543.1599 C47.8706,542.9359 48.1826,542.8849 48.4066,543.0459 C48.6306,543.2069 48.6826,543.5199 48.5206,543.7439 M44.9996,538.9999 C41.1406,538.9999 37.9996,542.1399 37.9996,545.9999 C37.9996,549.8599 41.1406,552.9999 44.9996,552.9999 C48.8596,552.9999 51.9996,549.8599 51.9996,545.9999 C51.9996,542.1399 48.8596,538.9999 44.9996,538.9999" id="btn_check_selected"></path>
        </g>
    </g>
</svg>