<?xml version="1.0" encoding="UTF-8"?>
<svg width="14px" height="14px" viewBox="0 0 14 14" version="1.1" xmlns="http://www.w3.org/2000/svg" xmlns:xlink="http://www.w3.org/1999/xlink">
    <title>icon_type</title>
    <g id="控件" stroke="none" stroke-width="1" fill="none" fill-rule="evenodd">
        <g id="消息中心公司组" transform="translate(-16.000000, -54.000000)" fill="#9EA5BB" fill-rule="nonzero">
            <g id="icon_type" transform="translate(16.000000, 54.000000)">
                <rect id="矩形" opacity="0" x="0" y="0" width="14" height="14"></rect>
                <path d="M5.79815186,6.18217049 L1.42720736,6.18217049 C1.19432126,6.18217049 1.00593898,5.99378821 1.00593898,5.7609161 L1.00593898,1.38830673 C1.00593898,1.15542063 1.19432126,0.967052338 1.42720736,0.967052338 L5.79815186,0.967052338 C6.03103796,0.967052338 6.21940625,1.15542063 6.21940625,1.38830673 L6.21940625,5.76091611 C6.21940625,5.99378821 6.03103796,6.18217049 5.79815186,6.18217049 L5.79815186,6.18217049 Z M1.84857367,5.33964771 L5.37688348,5.33964771 L5.37688348,1.80957511 L1.84857367,1.80957511 L1.84857367,5.33964771 L1.84857367,5.33964771 Z M12.7940107,6.18217049 L8.42141528,6.18217049 C8.18852918,6.18217049 8.00016089,5.99378821 8.00016089,5.7609161 L8.00016089,1.38830673 C8.00016089,1.15542063 8.18854317,0.967052338 8.42141528,0.967052338 L12.7940107,0.967052338 C13.0268968,0.967052338 13.2152511,1.15542063 13.2152511,1.38830673 L13.2152511,5.76091611 C13.2152511,5.99378821 13.0269108,6.18217049 12.7940107,6.18217049 L12.7940107,6.18217049 Z M8.84266966,5.33964771 L12.3727423,5.33964771 L12.3727423,1.80957511 L8.84266966,1.80957511 L8.84266966,5.33964771 L8.84266966,5.33964771 Z M5.79815186,13.2552989 L1.42720736,13.2552989 C1.19432126,13.2552989 1.00593898,13.0669446 1.00593898,12.8340585 L1.00593898,8.46310002 C1.00593898,8.23021392 1.19432126,8.04184563 1.42720736,8.04184563 L5.79815186,8.04184563 C6.03103796,8.04184563 6.21940625,8.23022791 6.21940625,8.46310002 L6.21940625,12.8340585 C6.21940625,13.0669446 6.03103796,13.2552989 5.79815186,13.2552989 L5.79815186,13.2552989 Z M1.84857367,12.4127901 L5.37688348,12.4127901 L5.37688348,8.88449431 L1.84857367,8.88449431 L1.84857367,12.4127901 L1.84857367,12.4127901 Z M12.7940107,13.2552989 L8.42141528,13.2552989 C8.18852918,13.2552989 8.00016089,13.0669446 8.00016089,12.8340585 L8.00016089,8.46310002 C8.00016089,8.23021392 8.18854317,8.04184563 8.42141528,8.04184563 L12.7940107,8.04184563 C13.0268968,8.04184563 13.2152511,8.23022791 13.2152511,8.46310002 L13.2152511,12.8340585 C13.2152511,13.0669446 13.0269108,13.2552989 12.7940107,13.2552989 L12.7940107,13.2552989 Z M8.84266966,12.4127901 L12.3727423,12.4127901 L12.3727423,8.88449431 L8.84266966,8.88449431 L8.84266966,12.4127901 L8.84266966,12.4127901 Z" id="形状"></path>
            </g>
        </g>
    </g>
</svg>