<?xml version="1.0" encoding="UTF-8"?>
<svg width="14px" height="14px" viewBox="0 0 14 14" version="1.1" xmlns="http://www.w3.org/2000/svg" xmlns:xlink="http://www.w3.org/1999/xlink">
    <title>icon_date</title>
    <g id="控件" stroke="none" stroke-width="1" fill="none" fill-rule="evenodd">
        <g id="消息中心公司组" transform="translate(-16.000000, -80.000000)" fill="#9EA5BB" fill-rule="nonzero">
            <g id="icon_date" transform="translate(16.000000, 80.000000)">
                <rect id="矩形" opacity="0" x="0" y="0" width="14" height="14"></rect>
                <path d="M11.5048828,13.0744141 L2.49511719,13.0744141 C1.63242188,13.0744141 0.931054688,12.3730469 0.931054688,11.5103516 L0.931054688,3.62714844 C0.931054688,2.76445312 1.63242188,2.06308594 2.49511719,2.06308594 L11.5048828,2.06308594 C12.3675781,2.06308594 13.0689453,2.76445312 13.0689453,3.62714844 L13.0689453,11.5103516 C13.0689453,12.3730469 12.3662109,13.0744141 11.5048828,13.0744141 Z M2.49511719,2.93945312 C2.11503906,2.93945312 1.80605469,3.2484375 1.80605469,3.62851562 L1.80605469,11.5117188 C1.80605469,11.8917969 2.11503906,12.2007813 2.49511719,12.2007813 L11.5048828,12.2007813 C11.8849609,12.2007813 12.1939453,11.8917969 12.1939453,11.5117188 L12.1939453,3.62714844 C12.1939453,3.24707031 11.8849609,2.93808594 11.5048828,2.93808594 L2.49511719,2.93808594 L2.49511719,2.93945312 Z" id="形状"></path>
                <path d="M9.36523438,5.81738281 L4.63476562,5.81738281 C4.39414062,5.81738281 4.19726562,6.01425781 4.19726562,6.25488281 C4.19726562,6.49550781 4.39414062,6.69238281 4.63476562,6.69238281 L9.36523438,6.69238281 C9.60585938,6.69238281 9.80273438,6.49550781 9.80273438,6.25488281 C9.80273438,6.01425781 9.60585938,5.81738281 9.36523438,5.81738281 Z M9.36523438,8.65292969 L4.63476562,8.65292969 C4.39414062,8.65292969 4.19726562,8.84980469 4.19726562,9.09042969 C4.19726562,9.33105469 4.39414062,9.52792969 4.63476562,9.52792969 L9.36523438,9.52792969 C9.60585938,9.52792969 9.80273438,9.33105469 9.80273438,9.09042969 C9.80273438,8.84980469 9.60585938,8.65292969 9.36523438,8.65292969 Z" id="形状"></path>
                <path d="M4.46386719,0.906445313 C4.22324219,0.906445313 4.02636719,1.10332031 4.02636719,1.34394531 L4.02636719,3.27167969 C4.02636719,3.51230469 4.22324219,3.70917969 4.46386719,3.70917969 C4.70449219,3.70917969 4.90136719,3.51230469 4.90136719,3.27167969 L4.90136719,1.34394531 C4.90136719,1.10332031 4.70449219,0.906445313 4.46386719,0.906445313 Z M9.53613281,0.906445313 C9.29550781,0.906445313 9.09863281,1.10332031 9.09863281,1.34394531 L9.09863281,3.27167969 C9.09863281,3.51230469 9.29550781,3.70917969 9.53613281,3.70917969 C9.77675781,3.70917969 9.97363281,3.51230469 9.97363281,3.27167969 L9.97363281,1.34394531 C9.97363281,1.10332031 9.77675781,0.906445313 9.53613281,0.906445313 Z" id="形状"></path>
            </g>
        </g>
    </g>
</svg>