<?xml version="1.0" encoding="UTF-8"?>
<svg width="16px" height="16px" viewBox="0 0 16 16" version="1.1" xmlns="http://www.w3.org/2000/svg" xmlns:xlink="http://www.w3.org/1999/xlink">
    <title>icon_pick</title>
    <g id="页面-1" stroke="none" stroke-width="1" fill="none" fill-rule="evenodd">
        <g id="3-首页-7排序-1" transform="translate(-80.000000, -210.000000)">
            <g id="icon_pick" transform="translate(80.000000, 210.000000)">
                <rect id="矩形" fill="#FFFFFF" x="0" y="0" width="16" height="16"></rect>
                <path d="M7.02574819,12.9997352 C6.90174819,12.9997352 6.78274819,12.9537352 6.68974819,12.8707352 L2.16474819,8.76873522 C1.95974819,8.58273522 1.94374819,8.26673522 2.12974819,8.06273522 C2.31574819,7.85573522 2.63174819,7.84273522 2.83674819,8.02773522 L6.94674819,11.7527352 L13.0937482,3.20773522 C13.2547482,2.98373522 13.5667482,2.93273522 13.7917482,3.09473522 C14.0157482,3.25573522 14.0677482,3.56773522 13.9057482,3.79173522 L7.43174819,12.7917352 C7.34874819,12.9077352 7.21974819,12.9817352 7.07874819,12.9967352 C7.06074819,12.9987352 7.04374819,12.9997352 7.02574819,12.9997352" id="Fill-1" fill="#2C68FF"></path>
            </g>
        </g>
    </g>
</svg>