<?xml version="1.0" encoding="UTF-8"?>
<svg width="10px" height="15px" viewBox="0 0 10 15" version="1.1" xmlns="http://www.w3.org/2000/svg" xmlns:xlink="http://www.w3.org/1999/xlink">
    <title>icon_arrow</title>
    <defs>
        <linearGradient x1="50%" y1="0%" x2="50%" y2="100%" id="linearGradient-1">
            <stop stop-color="#2C68FF" stop-opacity="0" offset="0%"></stop>
            <stop stop-color="#2C68FF" offset="100%"></stop>
        </linearGradient>
    </defs>
    <g id="页面-1" stroke="none" stroke-width="1" fill="none" fill-rule="evenodd">
        <g id="3-首页-2未登录滑到底部" transform="translate(-183.000000, -959.000000)" fill="url(#linearGradient-1)">
            <g id="编组-3" transform="translate(48.000000, 933.000153)">
                <path d="M140.8,39.9331802 L144.097282,35.5368037 C144.420741,35.105525 144.333336,34.4936891 143.902058,34.17023 C143.643508,33.9763178 143.30574,33.922949 143,34.027701 L140.324122,34.9445051 C140.114035,35.0164846 139.885965,35.0164846 139.675878,34.9445051 L137,34.027701 C136.490005,33.8529674 135.934922,34.1247507 135.760189,34.6347461 C135.655437,34.9404861 135.708805,35.278254 135.902718,35.5368037 L139.2,39.9331802 C139.531371,40.375008 140.158172,40.4645511 140.6,40.1331802 C140.675806,40.076326 140.743146,40.0089859 140.8,39.9331802 Z M140.8,31.9331802 L144.097282,27.5368037 C144.420741,27.105525 144.333336,26.4936891 143.902058,26.17023 C143.643508,25.9763178 143.30574,25.922949 143,26.027701 L140.324122,26.9445051 C140.114035,27.0164846 139.885965,27.0164846 139.675878,26.9445051 L137,26.027701 C136.490005,25.8529674 135.934922,26.1247507 135.760189,26.6347461 C135.655437,26.9404861 135.708805,27.278254 135.902718,27.5368037 L139.2,31.9331802 C139.531371,32.375008 140.158172,32.4645511 140.6,32.1331802 C140.675806,32.076326 140.743146,32.0089859 140.8,31.9331802 Z" id="icon_arrow"></path>
            </g>
        </g>
    </g>
</svg>