<?xml version="1.0" encoding="UTF-8"?>
<svg width="16px" height="16px" viewBox="0 0 16 16" version="1.1" xmlns="http://www.w3.org/2000/svg" xmlns:xlink="http://www.w3.org/1999/xlink">
    <title>icon_clear</title>
    <g id="页面-1" stroke="none" stroke-width="1" fill="none" fill-rule="evenodd">
        <g id="3-首页-7排序-1" transform="translate(-287.000000, -110.000000)">
            <g id="icon_clear" transform="translate(287.000000, 110.000000)">
                <rect id="矩形" fill="#D8D8D8" opacity="0" x="0" y="0" width="16" height="16"></rect>
                <path d="M8.70725,8.00025 L13.85325,2.85425 C14.04925,2.65825 14.04925,2.34225 13.85325,2.14625 C13.65825,1.95125 13.34225,1.95125 13.14625,2.14625 L8.00025,7.29325 L2.85325,2.14625 C2.65825,1.95125 2.34225,1.95125 2.14625,2.14625 C1.95125,2.34225 1.95125,2.65825 2.14625,2.85425 L7.29325,8.00025 L2.14625,13.14625 C1.95125,13.34225 1.95125,13.65825 2.14625,13.85425 C2.24425,13.95125 2.37225,14.00025 2.50025,14.00025 C2.62825,14.00025 2.75625,13.95125 2.85325,13.85425 L8.00025,8.70725 L13.14625,13.85425 C13.24425,13.95125 13.37225,14.00025 13.50025,14.00025 C13.62825,14.00025 13.75625,13.95125 13.85325,13.85425 C14.04925,13.65825 14.04925,13.34225 13.85325,13.14625 L8.70725,8.00025 Z" id="Fill-1" fill="#9EA5BB"></path>
            </g>
        </g>
    </g>
</svg>