<?xml version="1.0" encoding="UTF-8"?>
<svg width="18px" height="18px" viewBox="0 0 18 18" version="1.1" xmlns="http://www.w3.org/2000/svg" xmlns:xlink="http://www.w3.org/1999/xlink">
    <title>icon_search</title>
    <g id="页面-1" stroke="none" stroke-width="1" fill="none" fill-rule="evenodd">
        <g id="3-首页-1未登录" transform="translate(-32.000000, -245.000000)" fill="#2C68FF">
            <g id="编组-2" transform="translate(16.000000, 230.000000)">
                <path d="M17.187,22.879 C17.187,19.189 20.189,16.187 23.879,16.187 C27.569,16.187 30.571,19.189 30.571,22.879 C30.571,26.569 27.569,29.571 23.879,29.571 C20.189,29.571 17.187,26.569 17.187,22.879 M33.826,31.986 L29.848,28.008 C31.035,26.628 31.758,24.838 31.758,22.879 C31.758,18.534 28.224,15 23.879,15 C19.534,15 16,18.534 16,22.879 C16,27.224 19.534,30.758 23.879,30.758 C25.838,30.758 27.628,30.035 29.008,28.847 L32.987,32.826 C33.103,32.942 33.254,33 33.406,33 C33.558,33 33.71,32.942 33.826,32.826 C34.058,32.594 34.058,32.218 33.826,31.986" id="icon_search"></path>
            </g>
        </g>
    </g>
</svg>