<?xml version="1.0" encoding="UTF-8"?>
<svg width="94px" height="20px" viewBox="0 0 94 20" version="1.1" xmlns="http://www.w3.org/2000/svg" xmlns:xlink="http://www.w3.org/1999/xlink">
    <title>icon_recommend</title>
    <defs>
        <linearGradient x1="50%" y1="100%" x2="50%" y2="6.16297582e-31%" id="linearGradient-1">
            <stop stop-color="#F52F3E" offset="0%"></stop>
            <stop stop-color="#FF9C00" offset="100%"></stop>
        </linearGradient>
        <linearGradient x1="50%" y1="100%" x2="50%" y2="6.16297582e-31%" id="linearGradient-2">
            <stop stop-color="#F52F3E" offset="0%"></stop>
            <stop stop-color="#FF9C00" offset="100%"></stop>
        </linearGradient>
    </defs>
    <g id="页面-1" stroke="none" stroke-width="1" fill="none" fill-rule="evenodd">
        <g id="3-首页-1未登录" transform="translate(-16.000000, -330.000000)">
            <g id="icon_recommend" transform="translate(16.000000, 330.000000)">
                <path d="M92.260665,9.21016681 L87.4666466,9.21016681 C89.6852773,2.35063245 86.5663328,2 86.5663328,2 C85.237298,2 85.4593141,3.05189735 85.3475405,3.226448 C85.1714587,6.58118902 81.4691475,9.21016681 81.4691475,9.21016681 L80.9684627,18.7231773 C80.9194661,19.6617698 82.1811304,20.0001531 82.6833463,20.0001531 L89.8843263,20.0001531 C90.562624,20.0001531 91.2087676,18.2224925 91.2087676,18.2224925 C93.3095,12.1652787 93.4044311,10.3615886 93.4044311,10.3615886 C93.4702703,9.11064232 92.260665,9.21016681 92.260665,9.21016681 M79.503156,9.21322633 L76.6322571,9.21322633 C76.0397036,9.21322633 75.9998938,9.79506461 75.9998938,9.79506461 L76.0887002,19.3892258 C76.055015,20.0001531 76.6659423,20.0001531 76.6659423,20.0001531 L79.1509924,20.0001531 C79.6685197,20.0001531 79.6853623,19.5959306 79.6853623,19.5959306 L80.1937028,9.94052348 C80.2335126,9.20404223 79.503156,9.21322633 79.503156,9.21322633" id="形状结合" fill="url(#linearGradient-1)"></path>
                <path d="M9.003,0 L8.344,6.244 L0,20 L1.698,20 L9.194,8.999 L14.416,20 L16.116,20 L10.617,6.244 L11.253,0 L9.003,0 Z M22.2735,0.0225 L19.1935,6.0495 L20.8505,6.0495 L22.5075,3.4665 L35.1615,3.4665 L35.3945,1.3775 L23.8235,1.3775 L24.6935,0.0225 L22.2735,0.0225 Z M22.1675,4.8875 L21.9545,6.9325 L34.0145,6.9325 L34.2285,4.8875 L22.1675,4.8875 Z M19.4705,8.4165 L19.2365,10.5065 L30.9795,10.5065 L30.0225,19.8275 L33.2085,19.8275 L34.1635,17.7185 L32.4445,17.7185 L33.4205,8.4165 L19.4705,8.4165 Z M48.6237,0 L48.4107,2.411 L45.9267,2.411 L46.9887,0 L44.7807,0 L41.9977,7.32 L43.1657,7.32 L41.8697,20 L43.9307,20 L44.0367,18.881 L52.1057,18.881 L52.2977,16.899 L48.9417,16.899 L49.2397,13.887 L52.1687,13.887 L52.3817,11.992 L49.4517,11.992 L49.7267,9.149 L52.6577,9.149 L52.8687,7.233 L49.9397,7.233 L50.2577,4.392 L53.4427,4.392 L53.6337,2.411 L50.4487,2.411 L50.6827,0 L48.6237,0 Z M45.5437,4.392 L48.1987,4.392 L47.8807,7.233 L45.2457,7.233 L45.5437,4.392 Z M45.0347,9.149 L47.6887,9.149 L47.3907,11.992 L44.7587,11.992 L45.0347,9.149 Z M44.5457,13.887 L47.2007,13.887 L46.8817,16.899 L44.2497,16.899 L44.5457,13.887 Z M39.8757,0 L39.5787,2.821 L37.6667,2.821 L37.4547,4.887 L39.3657,4.887 L38.8987,9.473 L36.8817,10.227 L36.6677,12.465 L38.6647,11.732 L38.0277,17.955 L36.8817,17.955 L37.3477,19.958 L39.7687,19.958 L40.7037,10.981 L42.0837,10.463 L42.3167,8.225 L40.9367,8.74 L41.3187,4.887 L42.6787,4.887 L42.8687,2.821 L41.5317,2.821 L41.8287,0 L39.8757,0 Z M66.1602,0.0225 L66.0562,1.1855 L61.8082,1.1855 L61.8942,0.0225 L59.8122,0.0225 L59.7062,1.1855 L55.8852,1.1855 L55.6942,3.1655 L59.5142,3.1655 L59.3882,4.1765 L61.4682,4.1765 L61.5962,3.1655 L65.8652,3.1655 L65.6942,4.5215 L67.7752,4.5215 L67.9462,3.1655 L71.7892,3.1655 L72.0002,1.1855 L68.1352,1.1855 L68.2432,0.0225 L66.1602,0.0225 Z M59.9392,4.5655 L59.2182,5.6195 L55.7572,5.6195 L55.5452,7.5565 L57.8802,7.5565 L54.6532,12.2715 L56.5642,12.2715 L55.7572,19.9585 L57.9022,19.9585 L58.9432,9.7305 L58.8572,9.7305 L60.4072,7.5565 L71.1512,7.5565 L71.3642,5.6195 L61.8082,5.6195 L62.5512,4.5655 L59.9392,4.5655 Z M60.9802,8.8915 L60.7892,10.8275 L66.7992,10.8275 L64.2082,12.4445 L64.1652,12.9175 L59.5362,12.9175 L59.3252,14.8555 L63.9532,14.8555 L63.6562,17.8915 L62.3822,17.8915 L62.7222,19.9345 L65.5682,19.9345 L66.0972,14.8555 L70.5562,14.8555 L70.7692,12.9175 L66.5002,12.9175 L69.9622,10.8275 L70.1532,8.8915 L60.9802,8.8915 Z" id="形状结合" fill="url(#linearGradient-2)"></path>
            </g>
        </g>
    </g>
</svg>