<?xml version="1.0" encoding="UTF-8"?>
<svg width="94px" height="20px" viewBox="0 0 94 20" version="1.1" xmlns="http://www.w3.org/2000/svg" xmlns:xlink="http://www.w3.org/1999/xlink">
    <title>img_recommend_2</title>
    <defs>
        <linearGradient x1="50%" y1="100%" x2="50%" y2="6.16297582e-31%" id="linearGradient-1">
            <stop stop-color="#F52F3E" offset="0%"></stop>
            <stop stop-color="#FF9C00" offset="100%"></stop>
        </linearGradient>
        <linearGradient x1="50%" y1="100%" x2="50%" y2="6.16297582e-31%" id="linearGradient-2">
            <stop stop-color="#F52F3E" offset="0%"></stop>
            <stop stop-color="#FF9C00" offset="100%"></stop>
        </linearGradient>
    </defs>
    <g id="页面-1" stroke="none" stroke-width="1" fill="none" fill-rule="evenodd">
        <g id="3-首页-9无搜索结果" transform="translate(-16.000000, -562.000000)">
            <g id="img_recommend_2" transform="translate(16.000000, 562.000000)">
                <path d="M92.260665,9.21016681 L87.4666466,9.21016681 C89.6852773,2.35063245 86.5663328,2 86.5663328,2 C85.237298,2 85.4593141,3.05189735 85.3475405,3.226448 C85.1714587,6.58118902 81.4691475,9.21016681 81.4691475,9.21016681 L80.9684627,18.7231773 C80.9194661,19.6617698 82.1811304,20.0001531 82.6833463,20.0001531 L89.8843263,20.0001531 C90.562624,20.0001531 91.2087676,18.2224925 91.2087676,18.2224925 C93.3095,12.1652787 93.4044311,10.3615886 93.4044311,10.3615886 C93.4702703,9.11064232 92.260665,9.21016681 92.260665,9.21016681 M79.503156,9.21322633 L76.6322571,9.21322633 C76.0397036,9.21322633 75.9998938,9.79506461 75.9998938,9.79506461 L76.0887002,19.3892258 C76.055015,20.0001531 76.6659423,20.0001531 76.6659423,20.0001531 L79.1509924,20.0001531 C79.6685197,20.0001531 79.6853623,19.5959306 79.6853623,19.5959306 L80.1937028,9.94052348 C80.2335126,9.20404223 79.503156,9.21322633 79.503156,9.21322633" id="形状结合" fill="url(#linearGradient-1)"></path>
                <path d="M12.159,0 L11.942,2.411 L9.416,2.411 L10.496,0 L8.25,0 L5.421,7.32 L6.609,7.32 L5.291,20 L7.386,20 L7.494,18.881 L15.701,18.881 L15.895,16.899 L12.483,16.899 L12.785,13.887 L15.765,13.887 L15.981,11.992 L13.001,11.992 L13.281,9.149 L16.261,9.149 L16.477,7.233 L13.497,7.233 L13.821,4.392 L17.06,4.392 L17.256,2.411 L14.016,2.411 L14.253,0 L12.159,0 Z M9.027,4.392 L11.726,4.392 L11.403,7.233 L8.725,7.233 L9.027,4.392 Z M8.509,9.149 L11.209,9.149 L10.905,11.992 L8.229,11.992 L8.509,9.149 Z M8.013,13.887 L10.712,13.887 L10.388,16.899 L7.71,16.899 L8.013,13.887 Z M3.262,0 L2.959,2.821 L1.015,2.821 L0.798,4.887 L2.743,4.887 L2.268,9.473 L0.217,10.227 L0,12.465 L2.03,11.732 L1.382,17.955 L0.217,17.955 L0.691,19.958 L3.153,19.958 L4.103,10.981 L5.507,10.463 L5.745,8.225 L4.342,8.741 L4.73,4.887 L6.112,4.887 L6.306,2.821 L4.945,2.821 L5.248,0 L3.262,0 Z M29.997,0.0225 L29.889,1.1845 L25.57,1.1845 L25.655,0.0225 L23.54,0.0225 L23.432,1.1845 L19.544,1.1845 L19.349,3.1645 L23.237,3.1645 L23.108,4.1765 L25.224,4.1765 L25.354,3.1645 L29.695,3.1645 L29.522,4.5215 L31.638,4.5215 L31.811,3.1645 L35.719,3.1645 L35.935,1.1845 L32.005,1.1845 L32.113,0.0225 L29.997,0.0225 Z M23.669,4.5655 L22.935,5.6195 L19.415,5.6195 L19.199,7.5575 L21.574,7.5575 L18.292,12.2705 L20.236,12.2705 L19.415,19.9585 L21.596,19.9585 L22.654,9.7305 L22.568,9.7305 L24.144,7.5575 L35.071,7.5575 L35.288,5.6195 L25.57,5.6195 L26.326,4.5655 L23.669,4.5655 Z M24.727,8.8915 L24.533,10.8275 L30.644,10.8275 L28.01,12.4445 L27.967,12.9185 L23.259,12.9185 L23.043,14.8555 L27.751,14.8555 L27.448,17.8915 L26.153,17.8915 L26.499,19.9345 L29.391,19.9345 L29.932,14.8555 L34.466,14.8555 L34.682,12.9185 L30.343,12.9185 L33.862,10.8275 L34.057,8.8915 L24.727,8.8915 Z M47.7045,0 L46.9055,7.793 L44.6375,7.793 L44.8105,6.136 L46.2575,6.136 L46.4095,4.542 L44.9625,4.542 L45.1565,2.907 L46.7105,2.454 L46.9275,0.56 L45.3295,0.969 L43.4715,0.969 L42.5645,9.731 L46.6905,9.731 L46.5385,11.109 L42.3915,11.109 L42.1985,13.004 L50.0155,13.004 L46.9275,15.265 L45.3725,13.952 L41.8305,13.952 L45.3075,16.448 L40.4275,20 L42.6945,20 L46.7325,17.459 L50.2745,20 L52.5425,20 L48.3305,16.448 L52.2185,14.015 L52.3045,13.004 L52.4995,11.109 L48.5035,11.109 L48.6545,9.731 L52.7575,9.731 L53.6655,0.969 L50.1885,0.969 L50.0155,2.907 L51.6355,2.907 L51.4625,4.542 L50.0155,4.542 L49.8645,6.136 L51.2905,6.136 L51.1175,7.793 L48.8705,7.793 L49.6705,0 L47.7045,0 Z M39.6925,0 L39.3905,2.907 L37.7925,2.907 L37.5555,4.995 L39.1745,4.995 L38.6995,9.516 L36.9925,10.227 L36.7555,12.444 L38.4615,11.732 L37.8135,17.955 L36.6695,17.955 L37.1655,19.935 L39.6065,19.935 L40.5555,10.872 L41.7225,10.399 L41.9605,8.181 L40.7945,8.655 L41.1835,4.995 L42.3055,4.995 L42.5435,2.907 L41.3995,2.907 L41.7015,0 L39.6925,0 Z M63.4914,0.0225 L63.3824,1.0765 L57.1634,1.0765 L56.9474,2.9935 L63.1664,2.9935 L63.0374,4.3065 L56.3224,4.3065 L55.9544,7.8575 L58.1574,7.8575 L58.3084,6.2865 L61.1574,6.2865 L56.8184,9.8385 L56.7534,10.4635 L60.7924,10.4635 L55.9324,13.4775 L55.8894,14.0575 L62.2594,14.0575 L61.8284,18.1915 L60.2514,18.1915 L60.5974,19.9345 L63.7934,19.9345 L64.4414,14.0575 L70.3144,14.0575 L69.0614,9.7745 L66.7524,9.7745 L67.7024,12.1205 L61.1154,12.1205 L68.8694,7.5135 L65.4784,7.5135 L63.7284,8.6115 L61.0074,8.6115 L64.0734,6.2865 L69.6024,6.2865 L69.4514,7.8575 L71.6324,7.8575 L72.0004,4.3065 L65.3484,4.3065 L65.4784,2.9935 L71.6764,2.9935 L71.8704,1.0765 L65.6944,1.0765 L65.7804,0.0225 L63.4914,0.0225 Z M66.1904,14.9625 L68.3934,19.6135 L70.3794,19.6135 L68.7394,14.9625 L66.1904,14.9625 Z M57.3584,14.9625 L54.7444,19.6135 L56.6884,19.6135 L59.9054,14.9625 L57.3584,14.9625 Z" id="形状结合" fill="url(#linearGradient-2)"></path>
            </g>
        </g>
    </g>
</svg>